/* XPM */
static char * bat_full_xpm[] = {
"16 16 5 1",
" 	c None",
".	c #FFFFFF",
"+	c #888888",
"@	c #000000",
"#	c #AAAAAA",
"................",
"................",
"................",
"@@@@@@@@@@@@@...",
"@+++++++++++@...",
"@.......@@..@@@.",
"@######@@###@.@+",
"@+++++@@++++@#@+",
"@++++++@@+++@+@+",
"@+++++@@++++@@@+",
"@#####@#####@+++",
"@@@@@@@@@@@@@+..",
".+++++++++++++..",
"................",
"................",
"................"};
