/* XPM */
static char * Atari800_xpm[] = {
"30 30 17 1",
" 	c None",
".	c #2C2C2C",
"+	c #7D7D7D",
"@	c #AEAEAE",
"#	c #BDBDBD",
"$	c #CACACA",
"%	c #D2D2D2",
"&	c #D6D6D6",
"*	c #686868",
"=	c #888888",
"-	c #5B5B5B",
";	c #DADADA",
">	c #DEDEDE",
",	c #8E8E8E",
"'	c #4F4F4F",
")	c #FDFDFD",
"!	c #9E9E9E",
"))))))))))))))))))))))))))))))",
"))))))))))))))))))))))))))))))",
"))))))))))))))))))))))))))))))",
"))))))))))))))))))))))))))))))",
"))))))))))))))))))))))))))))))",
"));;&;$$$$$$$$%$$$$$$#$%&;;>))",
"))###@=+!!!,!,!,,,,,,=*,@##%))",
"))###@++@@@@@@@@@@@@@!*+@###))",
")>@@@@@@@@@@@@@@@@@@@@!!@@@#))",
")&@@@####################@@@))",
")$@!!!!!!!!!!!!!!!!!!!@@@!!!>)",
")#!,=-**--**++++++++++====,!%)",
")@!,,++=++=+++**++=====,,,,!#)",
")@#@@!!!!!!!,*+++,!@@!!@@!@##)",
")@#*...................*!,,#@)",
">@#'...................*!==#@)",
";##*'..................+!++##>",
"%##*...................*@++##&",
"$##@!!=............*!!!@#++@#$",
"$######,,,,,==,,,,,@#####@@##$",
"@@@@@@@@@@@@@@@@@@@@@@@@@@@@@@",
"!==+++===++++++=+++++++==++++!",
">=++*****'-*'-***'--'-*****+=>",
")>%$$$$##@@@@##@@@@@@###$$$$;)",
"%%%%%$%%$%%%%%%%%%%%%%%%%%%%%&",
"))))))))))))))))))))))))))))))",
"))))))))))))))))))))))))))))))",
"))))))))))))))))))))))))))))))",
"))))))))))))))))))))))))))))))",
"))))))))))))))))))))))))))))))"};
