/* XPM */
static char * Editor_xpm[] = {
"30 30 18 1",
" 	c None",
".	c #FFFFFF",
"+	c #D1CCD1",
"@	c #C8C4C8",
"#	c #C1BCC1",
"$	c #B9B4B9",
"%	c #B2ADB2",
"&	c #A9A4A9",
"*	c #A09BA0",
"=	c #020202",
"-	c #989398",
";	c #968E96",
">	c #8A8B8A",
",	c #DDD9DD",
"'	c #FEFEFE",
")	c #828382",
"!	c #7A7A7A",
"~	c #727572",
"..............................",
"..............................",
"..............................",
"...+++++@@@@####$$$$%%%%&&&...",
"...++++@+@@#@#$%#$%%%%&&&&*...",
"...+++@+#@####$#%$%%&%&&&&*...",
"...++@@@@$@#$$$%$%%==&&&***...",
"...+@+@@@###$#$$%%==-=&*&**...",
"...@+@#@###$$$%%$==;===****...",
"...@#@####$$$$%%==-====**--...",
"...@@@##$$$$%%%==;====-***-...",
"...@###$#$$%$%==-====;*----...",
"...####$$$%%%==;====>*-*---...",
"...###$$$$%===-====-**--->;...",
"...##$#%$=========>**---->>...",
"...$$$$$==,''====-*-*-->-->...",
"...$#%$%='=-=,==>**---->>>>...",
"...$$$%==',=-,==;-*-->-;>>)...",
"...%%%$=''=;=;=-*---->;)>))...",
"...$%%&='=-,,==---->->>>)>)...",
"...%%%='=;,===>-*-->>>;))))...",
"...%&%==-===;---->-;>>))))!...",
"...%%====;->*---->;)>))))!!...",
"...&&==;-***-*>->;>>))))!)!...",
"...&&&>-***---->;>;))))!!!!...",
"...&*&**-*-*>->;>>))))!)!!~...",
"...*&****---->>>));))!!~!~~...",
"..............................",
"..............................",
".............................."};
