/* XPM */
static char * Freecell_xpm[] = {
"30 30 17 1",
" 	c None",
".	c #020202",
"+	c #888888",
"@	c #494949",
"#	c #CACACA",
"$	c #EAEAEA",
"%	c #232323",
"&	c #A9A9A9",
"*	c #696969",
"=	c #171717",
"-	c #FFFFFF",
";	c #545454",
">	c #343434",
",	c #797979",
"'	c #D9D9D9",
")	c #B8B8B8",
"!	c #969696",
"&;.-...&;.....&;.....&;...--&;",
"&;..-*;&;.----&;.----&;.--.-&;",
"&;..$@;&;.----&;.----&;.--.-&;",
"&;..,*,&;.----&;.----&;.--.-&;",
"&;..)--&;.----&;.----&;.--.-&;",
"&;..-&+&;.--)>&;.----&;.--.-&;",
"&;..$..&;.-#=.&;.!---&;.--.-&;",
"&;..-!,&;.-;..&;.>'--&;.--.-&;",
"&;..---&;.-=**&;.=#--&;.--.-&;",
"&;..---&;.->@+&;.=)--&;.--.-&;",
"&;..---&;.-+;)&;..&--&;.--.-&;",
"&;..---&;.-#;!&;.>*--&;.--.-&;",
"&;..---&;.-!!)&;..=#-&;.--.-&;",
"&;..---&;.)@--&;.@.@$&;.--.-&;",
"&;..---&;.>+--&;.+..,&;.--.-&;",
"&;..---&;.='--&;.$@.%&;.--.-&;",
"&;..---&;.+---&;.-*..&;.--.-&;",
"&;..---&;.)---&;.-+..&;.--.-&;",
"&;..---&;.#---&;.-+..&;.--.-&;",
"&;..---&;.+$--&;.'*.%&;.--.-&;",
"&;..--'&;.!@'-&;.)+@,&;.--.-&;",
"&;..--#&;.);,-&;.!&&)&;.--.-&;",
"&;..--#&;.)&#-&;.@&&)&;.+-.-&;",
"&;..--&&;.)&*@&;.@&)&&;.%).-&;",
"&;..--$&;.+*@;&;.;,,,&;.%$.-&;",
"&;..---&;.&+)$&;.#!!#&;.$$.-&;",
"&;..---&;.----&;.----&;.#@.-&;",
"&;..---&;.----&;.----&;.*,.-&;",
"&;..---&;.----&;.----&;.;#.-&;",
"&;.-...&;.....&;.....&;...--&;"};
