/* XPM */
static char * Golf_xpm[] = {
"30 30 17 1",
" 	c None",
".	c #060606",
"+	c #333333",
"@	c #646464",
"#	c #939393",
"$	c #ADADAD",
"%	c #BABABA",
"&	c #C4C4C4",
"*	c #CBCBCB",
"=	c #D2D2D2",
"-	c #DADADA",
";	c #E2E2E2",
">	c #EAEAEA",
",	c #7B7B7B",
"'	c #FEFEFE",
")	c #464646",
"!	c #181818",
"''''......................''''",
"'''.'@@'''''''''''''''''''.'''",
"'''.>)@*''''''''''''''''''.'''",
"'''.,@,@''''''''''''''''''.'''",
"'''.%''%''''''>'''''''''''.'''",
"'''.'$#'''''%+!+#'''''''''.'''",
"'''.>..-'''*!..!!#''''''''.'''",
"'''.'#,''''@...!.+-'''''''.'''",
"'''.'''''''!@@@%+!*'''''''.'''",
"'''.'''''''+)##))!%'''''''.'''",
"'''.'''''''#@%*$+.$'''''''.'''",
"'''.'''''''*@##$@+@'''''''.'''",
"'''.'''''''##%%>-.!*''''''.'''",
"'''.''''''%)''''').)>'''''.'''",
"'''.''''''+#''''-#..,'''''.'''",
"'''.'''''%!-'''''>).!-''''.'''",
"'''.'''''@#'''''''@+@&-*-'.'''",
"'''.''''-!%'''''''&>>=&%##+'''",
"'''.''''#+*''''''''>>-&$##@#''",
"'''.''''%$#>''''''>>;=$$##@)*'",
"'''.''-%$%#)-'''''>--&$$#,@)@'",
"'''.''*%%%%@,''''''-=$%$,,)@)>",
"'''.''*%%%%$*''''>-&*#$#@@@))$",
"'''.''$#$$%$@))$;=*%%$#,,@@)+$",
"'''.''>$#,#@)@@%;--&%###@@))+&",
"'''.''''>-$#%>>;*&$##,,@)))+)>",
"'''.''''''''''''%%$##,@@)+)+,'",
"'''.'''''''''''';###,#@)@++)>'",
"'''.'''''''''''''&,,@)@)+)+*''",
"''''..............!)@)))++>'''"};
