/* XPM */
static char * HTMLViewer_xpm[] = {
"30 30 18 1",
" 	c None",
".	c #FFFFFF",
"+	c #FDFDFD",
"@	c #020202",
"#	c #CECECE",
"$	c #B6B6B6",
"%	c #A2A2A2",
"&	c #848484",
"*	c #D7D7D7",
"=	c #E6E6E6",
"-	c #DEDEDE",
";	c #C2C2C2",
">	c #E2E2E2",
",	c #6C6C6C",
"'	c #575757",
")	c #3F3F3F",
"!	c #2E2E2E",
"~	c #CACACA",
"..............................",
"..............................",
"..............................",
"...++++++++++++++++++++++++...",
"...+++@@@@@@@@@@@@@++++++++...",
"...+++@++++#$%&&%$@@+++++++...",
"...+++@++*%%%%%%%&@+@++++++...",
"...+++@+$&$=#%&%$%@++@+++++...",
"...+++@$%-+++=;$%$@+++@++++...",
"...+++@&=+++++++=*@@@@@@+++...",
"...+++@%+++++++++;>,'''@+++...",
"...+++@%#>+++++++$;,,))@&++...",
"...+++@&%$$#**===;$=;'!@&++...",
"...+++@&&&&$%%$;;;$%)!!@&++...",
"...+++@,&&&$$$$;;~#%!!!@&++...",
"...+++@,,,,;##;%$%,)!!!@&++...",
"...+++@,,,,;*#$$%')!!!!@&++...",
"...+++@,,,&*-~$%&)!!!!!@&++...",
"...+++@''',~-;%&,))!!!!@&++...",
"...+++@)'''~>;%'),)!!!!@&++...",
"...+++@))))&*$,!!)!!!!!@&++...",
"...+++@&))))''!!!!!!!!&@&++...",
"...+++@+&!!!!!!!!!!!!&+@&++...",
"...+++@++$'!!!!!!!!'$++@&++...",
"...+++@+++=$,)!!),$>+++@&++...",
"...+++@@@@@@@@@@@@@@@@@@&++...",
"...+++++,&&&&&&&&&&&&&&&,++...",
"..............................",
"..............................",
".............................."};
