/* XPM */
static char * same_xpm[] = {
"30 30 4 1",
" 	c None",
".	c #FFFFFF",
"+	c #000000",
"@	c #838183",
"..............++......+.......",
"......+++.....++.....+@+......",
"....++@@@++...++....+@+@+.....",
"...+@@+++@@+..++...+@+.+@+....",
"..+@++...++@+.++..+@+...+@+...",
"..+@+.....+@+.++.+@+.....+@+..",
".+@+.......+@++++@+.......+@+.",
".+@+.......+@+++.+@+.....+@+..",
".+@+.......+@+++..+@+...+@+...",
"..+@+.....+@+.++...+@+.+@+....",
"..+@++...++@+.++....+@+@+.....",
"...+@@+++@@+..++.....+@+......",
"....++@@@++...++......+.......",
"......+++.....++..............",
"++++++++++++++++++++++++++++++",
"++++++++++++++++++++++++++++++",
"+++++++++++++.++++.........++.",
"+@@@@@@@@@@@+.+++@+.......+@+.",
"+@+++++++++@+.++.+@+.....+@+..",
"+@+.......+@+.++..+@+...+@+...",
"+@+.......+@+.++...+@+.+@+....",
"+@+.......+@+.++....+@+@+.....",
"+@+.......+@+.++.....+@+......",
"+@+.......+@+.++....+@+@+.....",
"+@+.......+@+.++...+@+.+@+....",
"+@+.......+@+.++..+@+...+@+...",
"+@+++++++++@+.++.+@+.....+@+..",
"+@@@@@@@@@@@+.+++@+.......+@+.",
"+++++++++++++.++++.........++.",
"..............++.............."};
