/* XPM */
static char * Solitaire_xpm[] = {
"30 30 17 1",
" 	c None",
".	c #040404",
"+	c #888888",
"@	c #CACACA",
"#	c #494949",
"$	c #EAEAEA",
"%	c #232323",
"&	c #A9A9A9",
"*	c #696969",
"=	c #FFFFFF",
"-	c #171717",
";	c #5B5B5B",
">	c #343434",
",	c #797979",
"'	c #D9D9D9",
")	c #B8B8B8",
"!	c #969696",
"====......................====",
"===.=*;===================.===",
"===.$#;@==================.===",
"===.,*,*==================.===",
"===.)==)======$===========.===",
"===.=&+=====)>->!=========.===",
"===.$..'===@-..--!========.===",
"===.=!,====;...-.>'=======.===",
"===.=======-**;)>-@=======.===",
"===.=======>#+!##-)=======.===",
"===.=======+;)@&>.&=======.===",
"===.=======@;!+&;>*=======.===",
"===.=======!!))$'.-@======.===",
"===.======)#=====#.#$=====.===",
"===.======>+===='+..,=====.===",
"===.=====)-'=====$#.%'====.===",
"===.=====;+=======*..!====.===",
"===.===='-)=======+..*$===.===",
"===.====!>@=======+..;$===.===",
"===.====)&+$====='*.%+$===.===",
"===.==')&)!#'====)+#,&$===.===",
"===.==@))));,====!&&)&)===.===",
"===.==@))))&@==$,#&&))&)+=.===",
"===.==&!&&)&*##-.#&)&+!*%).===",
"===.==$&+,+*#;***;,,,)$!%$.===",
"===.====$'&+)$$$$@!!@=$=$$.===",
"===.==================!+@#.===",
"===.==================$>*,.===",
"===.===================;;@.===",
"====......................===="};
