/* XPM */
static char * terminal_xpm[] = {
"30 30 17 1",
" 	c None",
".	c #050505",
"+	c #888888",
"@	c #C7C7C7",
"#	c #4B4B4B",
"$	c #A4A4A4",
"%	c #272727",
"&	c #EBEBEB",
"*	c #666666",
"=	c #161616",
"-	c #989898",
";	c #BABABA",
">	c #DADADA",
",	c #5A5A5A",
"'	c #363636",
")	c #797979",
"!	c #FFFFFF",
"!!!!!!!!>-),#,##*-@&!!!!!!!!!!",
"!!!!!!&''%%%======%%)+$>!!!!!!",
"!!!!&*=='%%=%=====.....=*!!!!!",
"!!!!-=.......**##%......%$!!!!",
"!!!!)=='#,*******,*****%=*!!!!",
"!!!!)==,@@@@@@@@@@@@@@@#=*!!!!",
"!!!!)=%,@@.@@@@@@@@@@@;#=#!!!!",
"!!!!+==#;...@@@@@@@@@@@#='!!!!",
"!!!!+=%#;.@@@@@@@@@@@@@#='&!!!",
"!!!!+=%#;...@@@@@@@@@@;#='&!!!",
"!!!!+=%#;@@.@@@@@@@@@@@#=%&!!!",
"!!!!+=%,;...@@@@@@@@@@@#=%>!!!",
"!!!!+==#;@.@@....@@@@@@*=%@!!!",
"!!!!-=%#;@@@@@@@@@@@@@@*=%>!!!",
"!!!!-=%#;@@@@@@@@@@@@@@)=%>!!!",
"!!!!$=%#;@@@@@@@@@@@@@@+=%@!!!",
"!!!!$=%#;@@@@@@@@@@@@@@-=%;!!!",
"!!!!-=%#;@@@@@@@@@@@@@@+=%@!!!",
"!!!!$=%';@@@@@@@@@@@@@@+=%@!!!",
"!!!!$=%#@@@@@@@@@@@@@@@$=%>!!!",
"!!!!$=%#;@@@@@@@@@@@@@@$=%>!!!",
"!!!!$=%';@@@@@@@@@@@@@@;=%>!!!",
"!!!!;=%#;@@@@@@@@@@@@@@;=%>!!!",
"!!!!@=='+---++++--++-++)%%&!!!",
"!!!!&%='$--+-+++)-+++)-+'%&!!!",
"!!!!!%.%%%'%%=%========.=%!!!!",
"!!!!!'===.=...........=..'!!!!",
"!!!!!)...=.=...=,#....=.=)!!!!",
"!!!!!&*=........%%...%#*$&!!!!",
"!!!!!!!&@;----$$---;>&!!!!!!!!"};
