/* XPM */
static char * ThornQ_xpm[] = {
"30 30 17 1",
" 	c None",
".	c #040404",
"+	c #898989",
"@	c #454545",
"#	c #C9C9C9",
"$	c #242424",
"%	c #A8A8A8",
"&	c #6B6B6B",
"*	c #EAEAEA",
"=	c #979797",
"-	c #393939",
";	c #B8B8B8",
">	c #5C5C5C",
",	c #777777",
"'	c #FEFEFE",
")	c #181818",
"!	c #D6D6D6",
"'''''....................'''''",
"''''.'&&'''''''''''''''''.''''",
"&$$$$*,%;!'''''''''''''''.''''",
"$@@@@=;#%=*''''''''''''''.''''",
"$@>&,;#;+>;*''*''''''''''.''''",
"$@>,%;#+@@+*;-)-=''''''''.''''",
"$@>+#!%,@>##)..))='''''''.''''",
"$@>,;;=&@%'>...).-!''''''.''''",
"$@>,&=+@@;')&&>;-)#''''''.''''",
"$@>,&>,@,!'-@+=@@);''''''.''''",
"$@>,+,+>=*'+>;#%-.%''''''.''''",
"$@&==+&>>+*#>=+%>-&''''''.''''",
"$@,##;+&>@#++;;*!.)#'''''.''''",
"$@&%##;=,>@-+''''@.@*'''')';+*",
"&@>+%#!#%+&>>+**!+..,''''&'+@;",
"'>>,+%;!##%+&>>!**@.$!'''=*,@;",
"'!@>,+=;###;=,>@@*&..='''#%>@#",
"'*#@>&,+%;#!#;=&>@@$.&*'!;,@,!",
"''*;@>>,+=%;#!#;+>>>@>*!;=>@%'",
"'''*.&>%=++=%;##;=,,>>>%=+@@!'",
"''''.#;!;===++;#!;=+,&>>,+&,*'",
"''''.*!!;===,,+%;%==++,,,>@@!*",
"''''$'!#%+,,>>,+++====+++,&>@+",
"''''@'!;+>@--@>&,,++=====++,>@",
"''''&!!%>@-$$)@>>>&,++====+,>@",
"''''+!#&@>&&++&>@@>>&,+===+,>@",
"''''##+@&%*'*!#;+>>@>>,++++,>@",
"'''*;%>,;*'''''*#=,>&@>&,,,,>@",
"''''.'#!''''''''*!#;+&->>>>>>@",
"'''''..................$@@@@@@"};
