/* XPM */
static char * wordsearch_xpm[] = {
"30 30 9 1",
" 	c None",
".	c #020202",
"+	c #8E8E8E",
"@	c #9F9F9F",
"#	c #ACACAC",
"$	c #D4D4D4",
"%	c #E2E2E2",
"&	c #E6E6E6",
"*	c #F9F9F9",
"******************************",
"*&&&**&&&*&&&**&*&*&*&&**&***&",
"&++#&$@+#$++@$%.*.*.$+@$%@$*&#",
"%+#$%@#$%%+###$.*.*.$+#@$++$%+",
"%++#$++@$%++@$$.*.*.$+#@$+#@$+",
"%+$&*&%$@$+$$@$..*..$++$$+$@#+",
"%+$&*&%$@$+$$@$.**.*%+#@$+%$++",
"&++#$#+@$%++@$%.**.*&#$#$#&*$@",
"&%%$&$%&*&%&&&*******$$$*&%%%&",
"#&&#$#&*&#&*&#%*...*&@+@&&++#&",
"@$$@$+&*%+$%$+$.***.%$+$*%+#$*",
"$++$%+&*%+++++$.***.%%+%*%++#&",
"$++$%+%*%+$%$+$.***.%%+&*%+$&*",
"@$$@$+$&%+%*%+$.***.&%+&*%+$&*",
"#&&#$++#$#&*&#%*...**&#&*&++#&",
"&%%$&$$$*&*&*&*******%$%**$%&&",
"*...*...***.***...***...**.**.",
".****.*****.***.**.*.***.*.**.",
"...**...**.*.**.**.*.*****....",
"***.*.****...**...**.*****.**.",
"***.*.***.***.*.**.*.***.*.**.",
"...**...*.***.*.**.**...**.**.",
"%$%**%$%*&%&&&*******$$$**$%%&",
"&#&**&#&*&++#&&...**$@+@$&@+@&",
"%+%**%+&*%+#$*%.**.$@$%$@%$+$*",
"%+%**%+&*%++#&%.**.$+%*%+%%+%*",
"%+%**%+&*%+$&*%.**.$+%*%+%%+%*",
"%+$&*%+&*%+$&*%.**.$@$%$@&%+%*",
"&++#&&#&*&++#&&...**$@+@$*&#&*",
"*&%&**&***&%&**&%&***&%&***&**"};
