/* XPM */
static char * goweather_xpm[] = {
"30 30 18 1",
" 	c None",
".	c #FFFFFF",
"+	c #B7B7B7",
"@	c #161616",
"#	c #777777",
"$	c #282828",
"%	c #050505",
"&	c #999999",
"*	c #363636",
"=	c #E8E8E8",
"-	c #CCCCCC",
";	c #8A8A8A",
">	c #A7A7A7",
",	c #585858",
"'	c #DADADA",
")	c #666666",
"!	c #7F7F7F",
"~	c #404040",
"..............................",
"..............................",
"..............................",
"..............................",
"..............................",
"..............................",
"..........+@@#................",
".........$%%@%%&.#%@*=........",
"...-@@#.$%;..-@%*%%@%%-.......",
"..+@@%%%%*.....$%%...@%&......",
".=*.=&;@%&....->@#..=+%@......",
".%@.=>&,%....'&;%...'&$%%@....",
".*%=.+&@%....-;@%...-&@%@%%=..",
".%%=.='**....=)%)...+;%@.=%@..",
"#%+...........'=....=%%'..&%,.",
"@@.......................==@@!",
"@@......''-.............=>>@@!",
"~%;....=>>%;....))......-&&%@!",
".%$....=>#%>....$%.....'>;,%,!",
".@@==='+;%%....=+%@..=-&#%%@!!",
".,%+&>&;%%&-'''>;~%%+>&;$%!!!.",
"..%%);;;@%%;&&&;&%%%;;;;%$!!..",
"..&%%%%@%@%%@)>>@%@%%%%%%!!...",
"....!)@@,!>@%%%%%#.#@@@$!!....",
"......!!!...!!!!!!...!!!!.....",
"..............................",
"..............................",
"..............................",
"..............................",
".............................."};
